<?xml version="1.0" standalone="no"?><!DOCTYPE svg PUBLIC "-//W3C//DTD SVG 1.1//EN" "http://www.w3.org/Graphics/SVG/1.1/DTD/svg11.dtd"><svg class="icon" width="200px" height="200.00px" viewBox="0 0 1024 1024" version="1.1" xmlns="http://www.w3.org/2000/svg"><path fill="#1296db" d="M713.675744 750.366899l0 74.14979L298.35055 824.51669c-0.576121-18.570961 2.424212-36.432771 9.001001-53.576219 10.567683-28.288277 27.498284-56.147788 50.79078-83.579557 23.285333-27.431769 56.93164-59.148122 100.9379-95.151104 68.289316-56.001455 114.439402-100.361779 138.442072-133.084041 24.001647-32.715099 36.004005-63.648622 36.004005-92.794429 0-30.571273-10.930957-56.362682-32.789801-77.365019-21.858844-21.001313-50.362015-31.502481-85.508489-31.502481-37.148062 0-66.862827 11.143805-89.151459 33.431414-22.287609 22.287609-33.57877 53.147454-33.860179 92.580558l-79.292927-8.143471c5.424546-59.148122 25.857924-104.219643 61.291948-135.226844 35.427884-31.001061 83.003436-46.50415 142.728702-46.50415 60.287061 0 108.010993 16.715707 143.156444 50.14712s52.718689 74.866105 52.718689 124.297934c0 25.14775-5.142114 49.865711-15.429411 74.14979-10.287297 24.290219-27.363208 49.865711-51.219545 76.721359-23.861454 26.862811-63.508429 63.7223-118.938879 110.581538-46.290279 38.864146-76.012208 65.222467-89.152483 79.079056-13.146415 13.862729-24.00267 27.792996-32.574906 41.789779L713.675744 750.367923z" /></svg>