<?xml version="1.0" standalone="no"?><!DOCTYPE svg PUBLIC "-//W3C//DTD SVG 1.1//EN" "http://www.w3.org/Graphics/SVG/1.1/DTD/svg11.dtd"><svg class="icon" width="200px" height="200.00px" viewBox="0 0 1024 1024" version="1.1" xmlns="http://www.w3.org/2000/svg"><path fill="#1296db" d="M308.636824 658.643871l77.150124-10.287297c8.853645 43.718711 23.928992 75.221192 45.218878 94.508467 21.282722 19.288299 47.214325 28.930913 77.792761 28.930913 36.285414 0 66.930365-12.570293 91.937922-37.71702 25.001417-25.140587 37.504172-56.289004 37.504172-93.438089 0-35.427884-11.574616-64.647369-34.718733-87.651292-23.144116-22.997784-52.578496-34.502815-88.293929-34.502815-14.57188 0-32.722262 2.859118-54.43375 8.572236l8.572236-67.721381c5.143137 0.576121 9.282411 0.857531 12.429077 0.857531 32.856315 0 62.429865-8.572236 88.722694-25.716708 26.28669-17.144472 39.433104-43.571355 39.433104-79.292927 0-28.288277-9.577123-51.714825-28.716019-70.291926-19.147082-18.570961-43.866067-27.859511-74.150814-27.859511-30.002314 0-55.009871 9.429767-75.007321 28.288277-20.00359 18.859533-32.862455 47.14781-38.57455 84.865853l-77.150124-13.715373c9.428743-51.714825 30.859845-91.790566 64.291259-120.226199 33.431414-28.428469 75.007321-42.646286 124.726699-42.646286 34.288944 0 65.85794 7.359618 94.721315 22.073738 28.858258 14.72026 50.930973 34.791387 66.221214 60.220546 15.284101 25.435299 22.930245 52.438303 22.930245 81.007989 0 27.149337-7.284917 51.862181-21.858844 74.14979-14.57188 22.287609-36.149315 40.008202-64.720024 53.147454 37.142945 8.572236 66.007343 26.360368 86.578868 53.362348 20.573571 27.003004 30.860868 60.795645 30.860868 101.366665 0 54.862515-20.004613 101.367689-60.005652 139.513474-40.009226 38.145785-90.584088 57.219189-151.72868 57.219189-55.151088 0-100.938923-16.428158-137.370671-49.28959C334.568427 753.514589 313.780984 710.933795 308.636824 658.643871z" /></svg>