<?xml version="1.0" standalone="no"?><!DOCTYPE svg PUBLIC "-//W3C//DTD SVG 1.1//EN" "http://www.w3.org/Graphics/SVG/1.1/DTD/svg11.dtd"><svg class="icon" width="200px" height="200.00px" viewBox="0 0 1024 1024" version="1.1" xmlns="http://www.w3.org/2000/svg"><path fill="#1296db" d="M708.532607 350.043375l-76.722382 6.000668c-6.857175-30.283724-16.57449-52.290947-29.145807-66.00632-20.862143-22.00006-46.578852-33.002648-77.150124-33.002648-24.578792 0-46.150086 6.858198-64.721047 20.573571-24.290219 17.720593-43.437302 43.577494-57.434084 77.57889-14.003945 34.007535-21.289885 82.440617-21.858844 145.30027 18.570961-28.2893 41.287335-49.290613 68.149123-63.005986 26.855648-13.715373 55.002708-20.573571 84.437088-20.573571 51.433416 0 95.219665 18.932188 131.36898 56.791447 36.145222 37.865399 54.218856 86.793762 54.218856 146.799414 0 39.432081-8.504698 76.079746-25.502837 109.939925-17.002232 33.860179-40.362266 59.791781-70.076008 77.792761-29.721929 18.002003-63.434751 27.003004-101.153818 27.003004-64.291259 0-116.729561-23.641443-157.300582-70.935586-40.577161-47.288003-60.863183-125.220956-60.863183-233.807047 0-121.437793 22.427802-209.731722 67.291592-264.882809 39.144532-48.004317 91.863221-72.006987 158.158113-72.006987 49.430806 0 89.935312 13.862729 121.511471 41.574884C683.310156 262.893502 702.243367 301.181527 708.532607 350.043375zM393.502677 620.924805c0 26.574239 5.638417 52.009538 16.929578 76.293617 11.283997 24.290219 27.069519 42.793642 47.361681 55.505152 20.286022 12.717649 41.575908 19.073404 63.863517 19.073404 32.573883 0 60.57461-13.140275 84.007299-39.432081 23.426549-26.28669 35.146475-62.001099 35.146475-107.153462 0-43.430138-11.57257-77.645404-34.716686-102.651938-23.146163-25.000394-52.290947-37.503149-87.436398-37.503149-34.865065 0-64.439638 12.503778-88.723717 37.503149C405.644205 547.56603 393.502677 580.354807 393.502677 620.924805z" /></svg>