<?xml version="1.0" standalone="no"?><!DOCTYPE svg PUBLIC "-//W3C//DTD SVG 1.1//EN" "http://www.w3.org/Graphics/SVG/1.1/DTD/svg11.dtd"><svg class="icon" width="200px" height="200.00px" viewBox="0 0 1024 1024" version="1.1" xmlns="http://www.w3.org/2000/svg"><path fill="#1296db" d="M426.934091 483.769029c-32.004925-11.712763-55.719023-28.428469-71.149457-50.14712-15.430434-21.711488-23.14514-47.716768-23.14514-78.007655 0-45.714158 16.428158-84.148515 49.290613-115.295909 32.855292-31.141254 76.574003-46.719044 131.155109-46.719044 54.861492 0 99.008968 15.931854 132.440381 47.790446 33.431414 31.864732 50.148144 70.654176 50.148144 116.368334 0 29.145807-7.649214 54.507428-22.930245 76.078723-15.289218 21.577434-38.508036 38.219463-69.648266 49.932226 38.573527 12.577456 67.934229 32.862455 88.078011 60.864206 20.146852 28.006867 30.217209 61.438281 30.217209 100.295264 0 53.723575-19.004843 98.868775-57.005318 135.440715-38.006616 36.579103-88.01252 54.862515-150.014642 54.862515-62.008262 0-112.014166-18.35709-150.013619-55.076386-38.005592-36.71418-57.005318-82.508155-57.005318-137.370671 0-40.85857 10.353812-75.073836 31.074739-102.651938C359.140055 512.560772 388.640949 493.77594 426.934091 483.769029zM386.644479 643.213437c0 22.007223 5.209652 43.289945 15.644305 63.863517 10.426467 20.572548 25.930579 36.505425 46.50415 47.789423 20.572548 11.291161 42.713824 16.930601 66.434062 16.930601 36.860513 0 67.292616-11.853979 91.294262-35.57524 24.001647-23.714098 36.004005-53.857629 36.004005-90.436732 0-37.141922-12.361539-67.861574-37.074384-92.151793-24.718985-24.283056-55.652508-36.432771-92.795453-36.432771-36.290531 0-66.366523 12.001335-90.221838 36.004005C398.572136 577.207118 386.644479 607.209432 386.644479 643.213437zM411.503657 353.042685c0 29.721929 9.570983 54.004985 28.717042 72.864518 19.140942 18.859533 44.00012 28.288277 74.579579 28.288277 29.713742 0 54.0715-9.356089 73.078389-28.074406 18.998703-18.711154 28.503171-41.642422 28.503171-68.792782 0-28.288277-9.790994-52.076052-29.359678-71.363328-19.576871-19.287275-43.933605-28.930913-73.078389-28.930913-29.434379 0-53.864792 9.429767-73.293283 28.288277C421.214832 304.181861 411.503657 326.757019 411.503657 353.042685z" /></svg>