<?xml version="1.0" standalone="no"?><!DOCTYPE svg PUBLIC "-//W3C//DTD SVG 1.1//EN" "http://www.w3.org/Graphics/SVG/1.1/DTD/svg11.dtd"><svg class="icon" width="200px" height="200.00px" viewBox="0 0 1024 1024" version="1.1" xmlns="http://www.w3.org/2000/svg"><path fill="#1296db" d="M319.781652 679.216419l74.14979-6.857175c6.282077 34.864042 18.283412 60.151985 36.004005 75.863828 17.714454 15.717983 40.429805 23.573905 68.149123 23.573905 23.714098 0 44.50154-5.424546 62.36335-16.286941 17.853623-10.856255 32.500205-25.355481 43.932582-43.50484 11.42419-18.142196 21.001313-42.647309 28.716019-73.507154s11.57257-62.288648 11.57257-94.293573c0-3.430122-0.146333-8.572236-0.427742-15.430434-15.429411 24.578792-36.505425 44.508703-63.22088 59.791781-26.719548 15.289218-55.652508 22.930245-86.792739 22.930245-52.009538 0-96.008634-18.85851-132.012639-56.576553-36.004005-37.71702-54.004985-87.436398-54.004985-149.157111 0-63.71616 18.784832-115.00836 56.362682-153.871483 37.570687-38.85596 84.650959-58.290591 141.227512-58.290591 40.859593 0 78.222549 11.002588 112.081705 33.002648 33.861202 22.0062 59.57791 53.362348 77.150124 94.080725 17.574261 40.718377 26.360368 99.652628 26.360368 176.801728 0 80.298837-8.719592 144.227846-26.14445 191.804421-17.434068 47.575552-43.364647 83.794451-77.792761 108.653629-34.4363 24.859177-74.79345 37.289278-121.083729 37.289278-49.149397 0-89.298815-13.642718-120.44007-40.933271C344.781022 767.015068 326.062705 728.654388 319.781652 679.216419zM635.668089 401.904533c0-44.287669-11.788487-79.434144-35.360346-105.438401-23.573905-25.998117-51.936883-39.003316-85.080747-39.003316-34.288944 0-64.151066 14.003945-89.580225 42.00365-25.435299 28.006867-38.146808 64.292282-38.146808 108.8675 0 40.008202 12.06785 72.509431 36.217876 97.509824 24.142863 25.007557 53.931307 37.503149 89.366354 37.503149 35.715433 0 65.076134-12.496615 88.080058-37.503149C624.162034 480.843396 635.668089 446.199365 635.668089 401.904533z" /></svg>