<?xml version="1.0" encoding="UTF-8"?>
<svg width="16px" height="18px" viewBox="0 0 16 18" version="1.1" xmlns="http://www.w3.org/2000/svg" xmlns:xlink="http://www.w3.org/1999/xlink">
    <!-- Generator: Sketch 52.4 (67378) - http://www.bohemiancoding.com/sketch -->
    <title>icon/applay/on</title>
    <desc>Created with Sketch.</desc>
    <g id="Page-1" stroke="none" stroke-width="1" fill="none" fill-rule="evenodd">
        <g id="图标" transform="translate(-219.000000, -164.000000)">
            <g id="icon/applay/on" transform="translate(215.000000, 161.000000)">
                <g id="icon-apply-normal" fill="#B8B8B8" opacity="0">
                    <rect id="矩形" x="0" y="0" width="24" height="24"></rect>
                </g>
                <g id="分组-8">
                    <rect id="矩形" fill="#D8D8D8" opacity="0" x="0" y="0" width="24" height="24"></rect>
                    <g id="分组-7" transform="translate(3.750000, 3.750000)" stroke-width="1.4">
                        <path d="M9.25,0.577350269 L14.3947096,3.54764973 C15.0135117,3.90491532 15.3947096,4.56516936 15.3947096,5.27970054 L15.3947096,11.2202995 C15.3947096,11.9348306 15.0135117,12.5950847 14.3947096,12.9523503 L9.25,15.9226497 C8.63119785,16.2799153 7.86880215,16.2799153 7.25,15.9226497 L2.10529042,12.9523503 C1.48648827,12.5950847 1.10529042,11.9348306 1.10529042,11.2202995 L1.10529042,5.27970054 C1.10529042,4.56516936 1.48648827,3.90491532 2.10529042,3.54764973 L7.25,0.577350269 C7.86880215,0.220084679 8.63119785,0.220084679 9.25,0.577350269 Z" id="多边形" stroke="#982837" fill="#982837"></path>
                        <g id="分组-5" transform="translate(3.750000, 4.500000)" fill="#FFFFFF" stroke="#FFFFFF" stroke-linecap="round" stroke-linejoin="round">
                            <path d="M4.5,3.75 L4.5,7.77401978" id="路径-10"></path>
                            <path d="M2.25,7.70600665e-14 L2.25,4.02401978" id="路径-10-copy" transform="translate(2.250000, 2.012010) rotate(120.000000) translate(-2.250000, -2.012010) "></path>
                            <path d="M6.75,-1.95429057e-14 L6.75,4.02401978" id="路径-10-copy-2" transform="translate(6.750000, 2.012010) scale(-1, 1) rotate(120.000000) translate(-6.750000, -2.012010) "></path>
                        </g>
                    </g>
                </g>
            </g>
        </g>
    </g>
</svg>