<?xml version="1.0" standalone="no"?><!DOCTYPE svg PUBLIC "-//W3C//DTD SVG 1.1//EN" "http://www.w3.org/Graphics/SVG/1.1/DTD/svg11.dtd"><svg class="icon" width="200px" height="200.00px" viewBox="0 0 1024 1024" version="1.1" xmlns="http://www.w3.org/2000/svg"><path fill="#1296db" d="M512 536.4c-14.8 0-29.5-3.4-42.9-10.1L49.7 316.6c-15.8-7.9-22.2-27.1-14.3-42.9 7.9-15.8 27.1-22.3 42.9-14.3l419.4 209.7c8.9 4.5 19.7 4.5 28.6 0l419.4-209.7c15.8-7.9 35-1.5 42.9 14.3 7.9 15.8 1.5 35-14.3 42.9L554.9 526.3c-13.4 6.7-28.1 10.1-42.9 10.1z"  /><path fill="#1296db" d="M832 896H192c-88.2 0-160-71.8-160-160V288c0-88.2 71.8-160 160-160h640c88.2 0 160 71.8 160 160v448c0 88.2-71.8 160-160 160zM192 192c-52.9 0-96 43.1-96 96v448c0 52.9 43.1 96 96 96h640c52.9 0 96-43.1 96-96V288c0-52.9-43.1-96-96-96H192z"  /></svg>