<?xml version="1.0" standalone="no"?><!DOCTYPE svg PUBLIC "-//W3C//DTD SVG 1.1//EN" "http://www.w3.org/Graphics/SVG/1.1/DTD/svg11.dtd"><svg class="icon" width="200px" height="200.00px" viewBox="0 0 1024 1024" version="1.1" xmlns="http://www.w3.org/2000/svg"><path fill="#1296db" d="M569.6 1020H454.4c-8 0-15.2-6.4-16-14.4l-4.8-40c-67.2-11.2-131.2-38.4-186.4-76.8l-32 24.8c-6.4 4.8-15.2 4.8-20.8-1.6L112 830.4c-5.6-5.6-6.4-14.4-1.6-20.8l24.8-32c-39.2-56-65.6-120-76.8-186.4l-40-4.8c-8-0.8-14.4-8-14.4-16V454.4c0-8 6.4-15.2 14.4-16l40-4.8c11.2-67.2 38.4-131.2 76.8-186.4l-24.8-32c-4.8-6.4-4.8-15.2 1.6-20.8L193.6 112c5.6-5.6 14.4-6.4 20.8-1.6l32 24.8c55.2-39.2 119.2-65.6 186.4-76.8l4.8-40c0.8-8 8-14.4 16-14.4h116c8 0 15.2 6.4 16 14.4l4.8 40c67.2 11.2 131.2 38.4 186.4 76.8l32-24.8c6.4-4.8 15.2-4.8 20.8 1.6L912 193.6c5.6 5.6 6.4 14.4 1.6 20.8l-24.8 32c39.2 55.2 65.6 119.2 76.8 186.4l40 4.8c8 0.8 14.4 8 14.4 16v116c0 8-6.4 15.2-14.4 16l-40 4.8c-11.2 67.2-38.4 131.2-76.8 186.4l24.8 32c4.8 6.4 4.8 15.2-1.6 20.8L830.4 912c-5.6 5.6-14.4 6.4-20.8 1.6l-32-24.8c-55.2 39.2-119.2 65.6-186.4 76.8l-4.8 40c-1.6 8-8 14.4-16.8 14.4z m-101.6-32h88l4.8-38.4c0.8-7.2 6.4-12.8 13.6-13.6 70.4-10.4 136.8-37.6 193.6-80 5.6-4 13.6-4 19.2 0l30.4 24 61.6-61.6-24-30.4c-4.8-5.6-4.8-13.6 0-19.2 42.4-56.8 70.4-124 80-193.6 0.8-7.2 6.4-12.8 13.6-13.6l38.4-4.8v-88l-38.4-4.8c-7.2-0.8-12.8-6.4-13.6-13.6-10.4-70.4-37.6-136.8-80-193.6-4-5.6-4-13.6 0-19.2l24-30.4-61.6-61.6-30.4 24c-5.6 4.8-13.6 4.8-19.2 0-56.8-42.4-124-70.4-193.6-80-7.2-0.8-12.8-6.4-13.6-13.6l-4.8-38.4h-88l-4.8 38.4c-0.8 7.2-6.4 12.8-13.6 13.6-70.4 10.4-136.8 37.6-193.6 80-5.6 4-13.6 4-19.2 0l-30.4-24-61.6 61.6 24 30.4c4.8 5.6 4.8 13.6 0 19.2-42.4 56.8-70.4 124-80 193.6-0.8 7.2-6.4 12.8-13.6 13.6l-38.4 4.8v88l38.4 4.8c7.2 0.8 12.8 6.4 13.6 13.6 10.4 70.4 37.6 136.8 80 193.6 4 5.6 4 13.6 0 19.2l-24 30.4 61.6 61.6 30.4-24c5.6-4.8 13.6-4.8 19.2 0 56.8 42.4 124 70.4 193.6 80 7.2 0.8 12.8 6.4 13.6 13.6l4.8 38.4zM512 864.8c-194.4 0-352.8-158.4-352.8-352.8S317.6 159.2 512 159.2s352.8 158.4 352.8 352.8-158.4 352.8-352.8 352.8z m0-689.6c-185.6 0-336.8 151.2-336.8 336.8s151.2 336.8 336.8 336.8 336.8-151.2 336.8-336.8S697.6 175.2 512 175.2zM512 564.8c-28.8 0-52.8-23.2-52.8-52.8s23.2-52.8 52.8-52.8 52.8 23.2 52.8 52.8-24 52.8-52.8 52.8z m0-89.6c-20 0-36.8 16-36.8 36.8 0 20 16 36.8 36.8 36.8 20 0 36.8-16 36.8-36.8 0-20-16.8-36.8-36.8-36.8zM512 475.2c-4.8 0-8-3.2-8-8V352c0-4.8 3.2-8 8-8s8 3.2 8 8v115.2c0 4.8-3.2 8-8 8zM380 652.8c-2.4 0-4-0.8-5.6-2.4-3.2-3.2-3.2-8 0-11.2l101.6-101.6c3.2-3.2 8-3.2 11.2 0s3.2 8 0 11.2L385.6 650.4c-1.6 1.6-4 2.4-5.6 2.4zM512 258.4c-4.8 0-8-3.2-8-8v-15.2c0-4.8 3.2-8 8-8s8 3.2 8 8v15.2c0 4-3.2 8-8 8zM512 797.6c-4.8 0-8-3.2-8-8v-15.2c0-4.8 3.2-8 8-8s8 3.2 8 8v15.2c0 4-3.2 8-8 8zM250.4 520h-15.2c-4.8 0-8-3.2-8-8s3.2-8 8-8h15.2c4.8 0 8 3.2 8 8s-4 8-8 8zM789.6 520h-15.2c-4.8 0-8-3.2-8-8s3.2-8 8-8h15.2c4.8 0 8 3.2 8 8s-4 8-8 8zM326.4 334.4c-2.4 0-4-0.8-5.6-2.4l-11.2-11.2c-3.2-3.2-3.2-8 0-11.2s8-3.2 11.2 0l11.2 11.2c3.2 3.2 3.2 8 0 11.2-0.8 1.6-3.2 2.4-5.6 2.4zM708 716c-2.4 0-4-0.8-5.6-2.4l-11.2-11.2c-3.2-3.2-3.2-8 0-11.2s8-3.2 11.2 0l11.2 11.2c3.2 3.2 3.2 8 0 11.2-1.6 1.6-3.2 2.4-5.6 2.4zM316 716c-2.4 0-4-0.8-5.6-2.4-3.2-3.2-3.2-8 0-11.2l11.2-11.2c3.2-3.2 8-3.2 11.2 0s3.2 8 0 11.2l-11.2 11.2c-1.6 1.6-4 2.4-5.6 2.4zM697.6 334.4c-2.4 0-4-0.8-5.6-2.4-3.2-3.2-3.2-8 0-11.2l11.2-11.2c3.2-3.2 8-3.2 11.2 0s3.2 8 0 11.2l-11.2 11.2c-1.6 1.6-4 2.4-5.6 2.4z" /></svg>