<?xml version="1.0" standalone="no"?><!DOCTYPE svg PUBLIC "-//W3C//DTD SVG 1.1//EN" "http://www.w3.org/Graphics/SVG/1.1/DTD/svg11.dtd"><svg class="icon" width="200px" height="200.00px" viewBox="0 0 1024 1024" version="1.1" xmlns="http://www.w3.org/2000/svg"><path fill="#1296db" d="M512 1020c-134.4 0-265.6-32-368-91.2-4-2.4-7.2-6.4-8-11.2-4-21.6-5.6-43.2-5.6-64 0-152 90.4-289.6 230.4-350.4 7.2-3.2 16 0 20 6.4L512 740.8l131.2-230.4c4-7.2 12.8-10.4 20-6.4 140 60.8 230.4 197.6 230.4 350.4 0 20.8-1.6 42.4-5.6 64-0.8 4.8-4 8.8-8 11.2-102.4 58.4-233.6 90.4-368 90.4z m-345.6-115.2c96.8 53.6 219.2 83.2 345.6 83.2 126.4 0 248.8-29.6 345.6-83.2 2.4-17.6 4-34.4 4-51.2 0-134.4-77.6-256.8-197.6-315.2L525.6 780.8c-3.2 4.8-8 8-13.6 8s-11.2-3.2-13.6-8L360.8 538.4C240 596.8 162.4 718.4 162.4 853.6c0 16.8 1.6 34.4 4 51.2zM813.6 861.6c-4.8 0-8-3.2-8-8 0-97.6-48-188-128.8-242.4-3.2-3.2-4.8-8-1.6-11.2 2.4-4 7.2-4.8 11.2-2.4 84.8 57.6 135.2 153.6 135.2 256 0 4-4 8-8 8zM512 524c-103.2 0-186.4-102.4-186.4-228 0-12.8 0.8-25.6 3.2-38.4 0.8-8 8-13.6 16-13.6h336c8 0 14.4 5.6 16 13.6 1.6 13.6 3.2 26.4 3.2 38.4-1.6 125.6-84.8 228-188 228zM358.4 275.2c-0.8 7.2-0.8 13.6-0.8 20.8 0 108 69.6 196 154.4 196s154.4-88 154.4-196c0-6.4 0-13.6-0.8-20.8H358.4zM565.6 140.8c-4.8 0-8-3.2-8-8v-104c0-4.8 3.2-8 8-8s8 3.2 8 8v104c0 4-3.2 8-8 8zM458.4 140.8c-4.8 0-8-3.2-8-8v-104c0-4.8 3.2-8 8-8s8 3.2 8 8v104c0 4-4 8-8 8zM684 275.2h-344a53.6 53.6 0 0 1 0-107.2h105.6c8.8 0 16 7.2 16 16s-7.2 16-16 16H340c-12 0-21.6 9.6-21.6 21.6s9.6 21.6 21.6 21.6h344.8c12 0 21.6-9.6 21.6-21.6S696 200 684 200H582.4c-8.8 0-16-7.2-16-16s7.2-16 16-16h101.6a53.6 53.6 0 0 1 0 107.2zM512 239.2c-32 0-60-21.6-68-53.6-1.6-5.6-2.4-11.2-2.4-16.8 0-38.4 31.2-69.6 69.6-69.6s69.6 31.2 69.6 69.6c0 5.6-0.8 10.4-1.6 16-7.2 32.8-35.2 54.4-67.2 54.4z m0-124c-29.6 0-53.6 24-53.6 53.6 0 4 0.8 8 1.6 12.8 5.6 24 27.2 41.6 52 41.6s46.4-16.8 52-40.8c0.8-4.8 1.6-8.8 1.6-12.8 0-29.6-24-54.4-53.6-54.4zM682.4 200c-8.8 0-16-6.4-16-15.2C663.2 100.8 595.2 36 512 36S360.8 100.8 357.6 184c0 8.8-8 16-16.8 15.2-8.8 0-16-8-15.2-16.8C329.6 82.4 411.2 4 512 4c100.8 0 182.4 78.4 186.4 179.2 0 8.8-7.2 16-16 16.8z" /></svg>