<?xml version="1.0" standalone="no"?><!DOCTYPE svg PUBLIC "-//W3C//DTD SVG 1.1//EN" "http://www.w3.org/Graphics/SVG/1.1/DTD/svg11.dtd"><svg class="icon" width="200px" height="200.00px" viewBox="0 0 1024 1024" version="1.1" xmlns="http://www.w3.org/2000/svg"><path d="M192.698182 426.356364h-46.545455V212.712727a66.56 66.56 0 0 1 66.56-66.56h213.643637v46.545455H212.712727a19.549091 19.549091 0 0 0-19.549091 19.549091zM426.356364 877.847273H212.712727a66.56 66.56 0 0 1-66.094545-66.094546v-214.109091h46.545454v213.643637a19.549091 19.549091 0 0 0 19.549091 19.549091h213.643637zM877.847273 426.356364h-46.545455V212.712727a19.549091 19.549091 0 0 0-19.549091-19.549091h-214.109091v-46.545454h213.643637a66.56 66.56 0 0 1 66.094545 66.094545zM811.287273 877.847273h-213.643637v-46.545455h213.643637a19.549091 19.549091 0 0 0 19.549091-19.549091v-214.109091h46.545454v213.643637a66.56 66.56 0 0 1-66.094545 66.56z" fill="#1B37A8" /><path d="M512 626.501818A114.501818 114.501818 0 1 1 626.501818 512 114.501818 114.501818 0 0 1 512 626.501818z m0-182.458182A67.956364 67.956364 0 1 0 579.956364 512 67.956364 67.956364 0 0 0 512 444.043636z" fill="#FFB718" /><path d="M512 727.04A215.04 215.04 0 1 1 727.04 512 215.04 215.04 0 0 1 512 727.04z m0-383.069091A168.494545 168.494545 0 1 0 680.494545 512 168.494545 168.494545 0 0 0 512 343.505455z" fill="#FFB718" /><path d="M488.727273 169.425455h46.545454v150.807272h-46.545454zM488.727273 703.767273h46.545454v150.807272h-46.545454zM703.767273 488.727273h150.807272v46.545454h-150.807272zM169.425455 488.727273h150.807272v46.545454H169.425455z" fill="#FFB718" /></svg>