<?xml version="1.0" encoding="UTF-8"?>
<svg width="19px" height="19px" viewBox="0 0 19 19" version="1.1" xmlns="http://www.w3.org/2000/svg" xmlns:xlink="http://www.w3.org/1999/xlink">
    <!-- Generator: Sketch 52.4 (67378) - http://www.bohemiancoding.com/sketch -->
    <title>icon-news-nomrmal</title>
    <desc>Created with Sketch.</desc>
    <g id="Page-1" stroke="none" stroke-width="1" fill="none" fill-rule="evenodd">
        <g id="设计标准" transform="translate(-171.000000, -599.000000)">
            <g id="icon-news-nomrmal" transform="translate(168.000000, 596.000000)">
                <rect id="矩形" fill="#D8D8D8" opacity="0" x="0" y="0" width="24" height="24"></rect>
                <g id="icon-news" transform="translate(4.000000, 4.000000)">
                    <circle id="椭圆形" fill="#333333" cx="4.25" cy="8.5" r="1"></circle>
                    <circle id="椭圆形" fill="#333333" cx="12.75" cy="8.5" r="1"></circle>
                    <circle id="椭圆形" fill="#333333" cx="8.5" cy="8.5" r="1"></circle>
                    <path d="M14.5540402,14.3193373 C16.1846801,11.9979948 17,10.0582157 17,8.5 C17,3.80557963 13.1944204,0 8.5,0 C3.80557963,0 0,3.80557963 0,8.5 C0,13.1944204 3.80557963,17 8.5,17 L14.0519209,17 C14.4769054,17 14.8214233,16.655482 14.8214233,16.2304976 C14.8214233,16.1148814 14.7953707,16.0007512 14.7452013,15.8965871 L14.47138,15.3280866 C14.3141738,15.0016879 14.3457956,14.6157897 14.5540402,14.3193373 Z" id="路径" stroke="#333333" stroke-width="1.4"></path>
                </g>
            </g>
        </g>
    </g>
</svg>