<?xml version="1.0" encoding="UTF-8"?>
<svg width="16px" height="16px" viewBox="0 0 16 16" version="1.1" xmlns="http://www.w3.org/2000/svg" xmlns:xlink="http://www.w3.org/1999/xlink">
    <!-- Generator: Sketch 52.4 (67378) - http://www.bohemiancoding.com/sketch -->
    <title>icon-contactus</title>
    <desc>Created with Sketch.</desc>
    <g id="Page-1" stroke="none" stroke-width="1" fill="none" fill-rule="evenodd">
        <g id="我的" transform="translate(-16.000000, -435.000000)">
            <rect fill="#FFFFFF" x="0" y="0" width="360" height="640"></rect>
            <g id="Group-12" transform="translate(0.000000, 370.000000)">
                <g id="Group-4" transform="translate(0.000000, 49.000000)">
                    <g id="Group-9">
                        <rect id="Rectangle-10" stroke="#979797" fill="#F2F2F2" opacity="0" x="0.5" y="0.5" width="359" height="47"></rect>
                        <path d="M22.3571429,20.3571429 C22.4047611,20.476192 22.4702377,20.6547611 22.5535726,20.8928571 C22.6369051,21.1309531 22.7202377,21.3452366 22.8035703,21.5357143 C22.8869051,21.726192 22.9285714,21.8333326 22.9285714,21.8571429 C22.9761897,22 22.9761897,22.1190469 22.9285714,22.2142857 C22.8571429,22.3571429 22.7857143,22.4642857 22.7142857,22.5357143 L22.3928571,22.8571429 C22.25,23 22.2142857,23.1428571 22.2857143,23.2857143 C22.5238103,23.7619063 22.8809509,24.2261874 23.3571429,24.6785714 C23.7857166,25.0833349 24.30952,25.4404754 24.9285714,25.75 C25.1190491,25.8452389 25.261904,25.8333349 25.3571429,25.7142857 C25.4047611,25.6666674 25.517856,25.5416686 25.6964297,25.3392869 C25.8750011,25.1369029 25.988096,25.011904 26.0357143,24.9642857 C26.1547634,24.8214286 26.3095223,24.7857143 26.5,24.8571429 C26.5714286,24.8809531 26.7976183,25 27.1785714,25.2142857 C27.5595246,25.4285714 27.7738103,25.5476183 27.8214286,25.5714286 C28.0595246,25.6904777 28.1904754,25.7738103 28.2142857,25.8214286 C28.2857143,25.9642857 28.226192,26.273808 28.0357143,26.75 C27.9642857,26.9642857 27.7738103,27.1607131 27.4642857,27.3392869 C27.1547611,27.5178583 26.8928571,27.6190469 26.6785714,27.6428571 C26.6547611,27.7142857 26.464288,27.7261897 26.1071429,27.6785714 C25.7499977,27.6309531 25.1428617,27.4285737 24.2857143,27.0714286 C24.023808,26.9523794 23.7559543,26.8095246 23.482144,26.6428571 C23.2083314,26.4761897 22.97024,26.2976206 22.7678583,26.1071429 C22.5654743,25.9166651 22.3690491,25.726192 22.1785714,25.5357143 C21.9880937,25.3452366 21.8214286,25.1547634 21.6785714,24.9642857 C21.5357143,24.773808 21.4166674,24.6071429 21.3214286,24.4642857 C21.2261897,24.3214286 21.1428571,24.1904777 21.0714286,24.0714286 L20.9642857,23.9285714 C20.4404731,23.2380914 20.1904754,22.5476229 20.2142857,21.8571429 C20.238096,21.2619017 20.4999977,20.714288 21,20.2142857 C21.1666674,20.0476183 21.3452366,19.9642857 21.5357143,19.9642857 L21.8928571,19.9642857 C22.1071429,19.9642857 22.261904,20.0952366 22.3571429,20.3571429 Z M28.8928571,19.1071429 C27.5357074,17.7976114 25.9523909,17.1428571 24.1428571,17.1428571 C22.3333234,17.1428571 20.7500069,17.7976114 19.3928571,19.1071429 C18.0833269,20.4166743 17.4285714,21.9761806 17.4285714,23.7857143 C17.4285714,25.0238149 17.7499968,26.1666606 18.3928571,27.2142857 L18.6785714,27.6785714 L18.5,28.1785714 L17.8214286,30.2142857 L20,29.5357143 L20.4642857,29.3928571 L20.8928571,29.6071429 C21.916672,30.1547646 22.9999954,30.4285714 24.1428571,30.4285714 C25.9761989,30.4285714 27.5595177,29.7857207 28.8928571,28.5 C30.2023886,27.1904686 30.8571429,25.619056 30.8571429,23.7857143 C30.8571429,21.9761806 30.2023886,20.4166743 28.8928571,19.1071429 Z M18.5714286,18.2857143 C20.119056,16.7618971 21.9761806,16 24.1428571,16 C26.3095337,16 28.1607063,16.7559451 29.6964297,18.2678583 C31.2321509,19.7797691 32,21.6190377 32,23.7857143 C32,25.9523909 31.2321509,27.7916594 29.6964297,29.3035703 C28.1607063,30.8154837 26.3095337,31.5714286 24.1428571,31.5714286 C22.8333257,31.5714286 21.5714354,31.2500032 20.3571429,30.6071429 L16,32 L17.4285714,27.8214286 C16.6666629,26.5595177 16.2857143,25.2142926 16.2857143,23.7857143 C16.2857143,21.6190377 17.0476114,19.7857211 18.5714286,18.2857143 Z" id="Fill-1" fill="#982837"></path>
                    </g>
                </g>
            </g>
        </g>
    </g>
</svg>