<?xml version="1.0" encoding="UTF-8"?>
<svg width="15px" height="16px" viewBox="0 0 15 16" version="1.1" xmlns="http://www.w3.org/2000/svg" xmlns:xlink="http://www.w3.org/1999/xlink">
    <!-- Generator: Sketch 52.4 (67378) - http://www.bohemiancoding.com/sketch -->
    <title>icon-filelowdown</title>
    <desc>Created with Sketch.</desc>
    <g id="Page-1" stroke="none" stroke-width="1" fill="none" fill-rule="evenodd">
        <g id="我的" transform="translate(-16.000000, -321.000000)">
            <rect fill="#FFFFFF" x="0" y="0" width="360" height="640"></rect>
            <g id="Group-11" transform="translate(0.000000, 160.000000)">
                <g id="Group-4" transform="translate(0.000000, 146.000000)" fill="#E9E9E9" opacity="0" stroke="#979797">
                    <rect id="Rectangle-10" x="0.5" y="0.5" width="359" height="47"></rect>
                </g>
                <path d="M29.8189565,171.905218 C29.6031226,171.905218 29.4270491,171.970535 29.2907339,172.101171 C29.1544187,172.231807 29.0862611,172.41072 29.0862611,172.637913 L29.0862611,174.818956 C29.0862611,175.03479 29.0209432,175.208022 28.8903074,175.338658 C28.7596716,175.469294 28.5864401,175.534611 28.3706062,175.534611 L18.1810435,175.534611 C17.9652101,175.534611 17.7919778,175.469294 17.6613418,175.338658 C17.5307056,175.208022 17.4653886,175.03479 17.4653886,174.818956 L17.4653886,172.637913 C17.4653886,172.41072 17.3972317,172.231807 17.2609158,172.101171 C17.1245999,171.970535 16.9485278,171.905218 16.7326943,171.905218 C16.5168609,171.905218 16.3407887,171.970535 16.2044728,172.101171 C16.0681569,172.231807 16,172.41072 16,172.637913 L16,174.818956 C16,175.432378 16.2101505,175.949235 16.6304579,176.369542 C17.0507653,176.789849 17.567622,177 18.1810435,177 L28.3706062,177 C28.9840269,177 29.500884,176.789849 29.9211907,176.369542 C30.3414996,175.949235 30.5516497,175.432378 30.5516497,174.818956 L30.5516497,172.637913 C30.5516497,172.41072 30.4834921,172.231807 30.3471769,172.101171 C30.2108617,171.970535 30.0347882,171.905218 29.8189565,171.905218 Z M22.7646417,172.416402 C22.7987227,172.450481 22.835639,172.481718 22.8753994,172.510117 C22.9151577,172.538516 22.9520762,172.552717 22.986155,172.552717 C23.0202338,172.598155 23.0685112,172.623714 23.1309894,172.629394 C23.1934676,172.635073 23.241745,172.637913 23.2758259,172.637913 C23.3099047,172.637913 23.3581821,172.635073 23.4206603,172.629394 C23.4831385,172.623714 23.5314159,172.598155 23.5654947,172.552717 C23.5995735,172.518636 23.636492,172.495918 23.6762503,172.484559 C23.7160107,172.473198 23.752927,172.450481 23.7870058,172.416402 L26.7007447,169.502663 C26.83706,169.354987 26.9052176,169.184595 26.9052176,168.991481 C26.9052176,168.798367 26.83706,168.627975 26.7007447,168.480299 C26.5530685,168.343984 26.3826766,168.275826 26.1895627,168.275826 C25.9964487,168.275826 25.8260569,168.343984 25.6783806,168.480299 L24.0085192,170.167201 L24.0085192,161.732695 C24.0085192,161.505503 23.9403615,161.326589 23.8040463,161.195954 C23.6677311,161.065318 23.4916576,161 23.2758259,161 C23.0599921,161 22.8839186,161.065318 22.7476034,161.195954 C22.6112882,161.326589 22.5431305,161.505503 22.5431305,161.732695 L22.5431305,170.167201 L20.8732691,168.480299 C20.7255928,168.343984 20.555201,168.275826 20.362087,168.275826 C20.1689731,168.275826 19.9985812,168.343984 19.850905,168.480299 C19.7145897,168.627975 19.6464321,168.798367 19.6464321,168.991481 C19.6464321,169.184595 19.7145897,169.354987 19.850905,169.502663 L22.7646417,172.416402 Z" id="Fill-1" fill="#982837"></path>
            </g>
        </g>
    </g>
</svg>