<?xml version="1.0" encoding="UTF-8"?>
<svg width="16px" height="16px" viewBox="0 0 16 16" version="1.1" xmlns="http://www.w3.org/2000/svg" xmlns:xlink="http://www.w3.org/1999/xlink">
    <!-- Generator: Sketch 52.4 (67378) - http://www.bohemiancoding.com/sketch -->
    <title>icon-fix record</title>
    <desc>Created with Sketch.</desc>
    <defs>
        <rect id="path-1" x="0" y="0" width="16" height="16"></rect>
    </defs>
    <g id="Page-1" stroke="none" stroke-width="1" fill="none" fill-rule="evenodd">
        <g id="我的" transform="translate(-16.000000, -272.000000)">
            <rect fill="#FFFFFF" x="0" y="0" width="360" height="640"></rect>
            <g id="Group-11" transform="translate(0.000000, 160.000000)">
                <rect id="Rectangle-10" stroke="#979797" fill="#E9E9E9" opacity="0" x="0.5" y="97.5" width="359" height="47"></rect>
                <g id="Fill-1" transform="translate(16.000000, 112.000000)">
                    <mask id="mask-2" fill="white">
                        <use xlink:href="#path-1"></use>
                    </mask>
                    <use id="Mask" fill="#D8D8D8" opacity="0.0640625" xlink:href="#path-1"></use>
                    <path d="M12.3988604,8 L3.64672365,8 C3.44919084,8 3.27825285,8.049478 3.13390386,8.148438 C2.98955195,8.247396 2.91737892,8.364582 2.91737892,8.5 C2.91737892,8.635418 2.98955195,8.752604 3.13390386,8.851562 C3.27825285,8.950522 3.44919084,9 3.64672365,9 L12.3988604,9 C12.5963932,9 12.7673312,8.950522 12.9116802,8.851562 C13.0560321,8.752604 13.1282051,8.635418 13.1282051,8.5 C13.1282051,8.364582 13.0560321,8.247396 12.9116802,8.148438 C12.7673312,8.049478 12.5963932,8 12.3988604,8 Z M12.3988604,11 L3.64672365,11 C3.44919084,11 3.27825285,11.049478 3.13390386,11.148438 C2.98955195,11.247396 2.91737892,11.364582 2.91737892,11.5 C2.91737892,11.635418 2.98955195,11.752604 3.13390386,11.851562 C3.27825285,11.950522 3.44919084,12 3.64672365,12 L12.3988604,12 C12.5963932,12 12.7673312,11.950522 12.9116802,11.851562 C13.0560321,11.752604 13.1282051,11.635418 13.1282051,11.5 C13.1282051,11.364582 13.0560321,11.247396 12.9116802,11.148438 C12.7673312,11.049478 12.5963932,11 12.3988604,11 Z M13.1282051,1 L13.1282051,0 L11.6695157,0 L11.6695157,1 L8.75213675,1 L8.75213675,0 L7.29344729,0 L7.29344729,1 L4.37606838,1 L4.37606838,0 L2.91737892,0 L2.91737892,1 C2.11205689,1 1.4245042,1.19531 0.854701001,1.585938 C0.284897426,1.976564 0,2.447914 0,3 L0,14 C0,14.552086 0.284897426,15.0234356 0.854701001,15.4140624 C1.4245042,15.8046895 2.11205689,16 2.91737892,16 L13.1282051,16 C13.9335272,16 14.6210804,15.8046895 15.1908825,15.4140624 C15.7606874,15.0234356 16.045584,14.552086 16.045584,14 L16.045584,3 C16.045584,2.447914 15.7606874,1.976564 15.1908825,1.585938 C14.6210804,1.19531 13.9335272,1 13.1282051,1 Z M14.5868946,14 C14.5868946,14.2708346 14.4425456,14.5052074 14.1538447,14.703125 C13.8651467,14.9010426 13.5232678,15 13.1282051,15 L2.91737892,15 C2.52231534,15 2.18043821,14.9010426 1.89173789,14.703125 C1.60303757,14.5052074 1.45868946,14.2708346 1.45868946,14 L1.45868946,3 C1.45868946,2.729166 1.60303757,2.494792 1.89173789,2.296876 C2.18043821,2.098958 2.52231534,2 2.91737892,2 L13.1282051,2 C13.5232678,2 13.8651467,2.098958 14.1538447,2.296876 C14.4425456,2.494792 14.5868946,2.729166 14.5868946,3 L14.5868946,14 Z M12.3988604,5 L3.64672365,5 C3.44919084,5 3.27825285,5.049478 3.13390386,5.148438 C2.98955195,5.247396 2.91737892,5.364582 2.91737892,5.5 C2.91737892,5.635418 2.98955195,5.752604 3.13390386,5.851562 C3.27825285,5.950522 3.44919084,6 3.64672365,6 L12.3988604,6 C12.5963932,6 12.7673312,5.950522 12.9116802,5.851562 C13.0560321,5.752604 13.1282051,5.635418 13.1282051,5.5 C13.1282051,5.364582 13.0560321,5.247396 12.9116802,5.148438 C12.7673312,5.049478 12.5963932,5 12.3988604,5 Z" fill="#982837" mask="url(#mask-2)"></path>
                </g>
            </g>
        </g>
    </g>
</svg>