<?xml version="1.0" encoding="UTF-8"?>
<svg width="16px" height="16px" viewBox="0 0 16 16" version="1.1" xmlns="http://www.w3.org/2000/svg" xmlns:xlink="http://www.w3.org/1999/xlink">
    <!-- Generator: Sketch 52.4 (67378) - http://www.bohemiancoding.com/sketch -->
    <title>icon-changepassword</title>
    <desc>Created with Sketch.</desc>
    <g id="Page-1" stroke="none" stroke-width="1" fill="none" fill-rule="evenodd">
        <g id="我的" transform="translate(-16.000000, -484.000000)">
            <rect fill="#FFFFFF" x="0" y="0" width="360" height="640"></rect>
            <g id="Group-12" transform="translate(0.000000, 370.000000)">
                <g id="Group-4" transform="translate(0.000000, 98.000000)">
                    <g id="Group-10">
                        <rect id="Rectangle-10" stroke="#979797" fill="#D8D8D8" opacity="0" x="0.5" y="0.5" width="359" height="47"></rect>
                        <path d="M24,21.3177826 C23.27083,21.3177826 22.643232,21.5769332 22.117188,22.0952385 C21.591144,22.6135417 21.328124,23.2354989 21.328124,23.9611278 C21.328124,24.6971201 21.591144,25.32426 22.117188,25.8425652 C22.643232,26.3608705 23.27083,26.6200191 24,26.6200191 C24.72917,26.6200191 25.356768,26.3608705 25.882812,25.8425652 C26.408856,25.32426 26.671876,24.6971201 26.671876,23.9611278 C26.671876,23.2354989 26.408856,22.6135417 25.882812,22.0952385 C25.356768,21.5769332 24.72917,21.3177826 24,21.3177826 Z M24,25.2983465 C23.635414,25.2983465 23.322918,25.1687732 23.0625,24.9096206 C22.802082,24.6504679 22.671876,24.3343057 22.671876,23.9611278 C22.671876,23.5983133 22.802082,23.2873338 23.0625,23.0281831 C23.322918,22.7690305 23.635414,22.6394552 24,22.6394552 C24.364586,22.6394552 24.677082,22.7690305 24.9375,23.0281831 C25.197918,23.2873338 25.328124,23.5983133 25.328124,23.9611278 C25.328124,24.3343057 25.197918,24.6504679 24.9375,24.9096206 C24.677082,25.1687732 24.364586,25.2983465 24,25.2983465 Z M29.53125,26.2157431 C29.5625,26.1535468 29.614582,26.0939418 29.6875,26.0369282 C29.760418,25.9799146 29.864582,25.9514098 30,25.9514098 C30.562502,25.9514098 31.036456,25.7622295 31.421876,25.3838669 C31.807294,25.0055044 32,24.531262 32,23.9611278 C32,23.401357 31.807294,22.929706 31.421876,22.5461607 C31.036456,22.1626155 30.562502,21.9708459 30,21.9708459 L29.859376,21.9708459 C29.796874,21.9708459 29.734376,21.9552958 29.671876,21.9241976 C29.609374,21.8930995 29.5625,21.8464532 29.53125,21.7842569 L29.46875,21.6443142 C29.4375,21.5821179 29.427084,21.5017822 29.4375,21.403303 C29.447916,21.3048259 29.5,21.20894 29.59375,21.1156456 C29.968752,20.7528311 30.171874,20.3304196 30.203124,19.8483952 C30.234376,19.3663728 30.09896,18.9232286 29.796876,18.5189486 L29.796876,18.3323597 L29.53125,18.192419 C29.364582,18.0265608 29.166668,17.8969875 28.9375,17.803693 C28.708332,17.7103966 28.463542,17.6637503 28.203124,17.6637503 C28.203124,17.6637503 28.203124,17.6637503 28.203124,17.6637503 C27.93229,17.6637503 27.669272,17.7129879 27.414062,17.8114671 C27.158852,17.9099442 26.932292,18.057659 26.734376,18.2546153 C26.671874,18.327179 26.59375,18.3660512 26.5,18.3712339 C26.40625,18.3764166 26.328126,18.3634598 26.265624,18.3323597 C26.203124,18.3634598 26.14323,18.3401357 26.085938,18.2623893 C26.028646,18.1846449 26,18.0939418 26,17.990282 C26,17.4305112 25.807294,16.9588601 25.421876,16.5753149 C25.036456,16.1917696 24.562502,16 24,16 C23.437498,16 22.963544,16.1917696 22.578124,16.5753149 C22.192706,16.9588601 22,17.4305112 22,17.990282 L22,18.1302227 C22,18.192419 21.984376,18.2546153 21.953124,18.3168116 C21.921874,18.3790079 21.869792,18.4256541 21.796876,18.4567523 L21.671876,18.5189486 C21.598958,18.5604141 21.515626,18.5655968 21.421876,18.5344987 C21.328124,18.5034005 21.234376,18.4567543 21.140624,18.394556 C20.734372,18.0006453 20.257816,17.803693 19.710938,17.803693 C19.16406,17.803693 18.703126,18.0006453 18.328124,18.394556 C17.9322896,18.7884686 17.7369792,19.262711 17.7421876,19.8172971 C17.7473958,20.3718832 17.9687478,20.8461256 18.40625,21.2400382 C18.46875,21.3126019 18.502604,21.395529 18.507812,21.4888234 C18.51302,21.5821179 18.5,21.6805951 18.46875,21.7842569 C18.4375,21.8464532 18.377604,21.9060562 18.289062,21.9630698 C18.20052,22.0200834 18.104168,22.0485902 18,22.0485902 C17.4374972,22.0485902 16.9635436,22.2377685 16.578125,22.6161311 C16.1927064,22.9944936 16,23.468736 16,24.0388722 C16,24.598641 16.1927064,25.070292 16.578125,25.4538393 C16.9635436,25.8373845 17.4374972,26.0291541 18,26.0291541 L18.140624,26.0291541 C18.234376,26.0291541 18.315104,26.0550696 18.382812,26.1068985 C18.450522,26.1587295 18.5,26.2209258 18.53125,26.2934875 C18.5625,26.3556858 18.572916,26.4334302 18.5625,26.5267246 C18.552084,26.6200191 18.5,26.7184963 18.40625,26.8221581 C18.197916,27.0191124 18.044272,27.2342062 17.9453124,27.4674433 C17.8463536,27.7006805 17.796875,27.9468724 17.796875,28.206025 C17.796875,28.4444449 17.8437496,28.6776801 17.9375,28.9057325 C18.03125,29.133787 18.161458,29.3462894 18.328124,29.5432457 L18.40625,29.605442 C18.40625,29.605442 18.40625,29.605442 18.40625,29.605442 L18.59375,29.807581 C19.000002,30.108197 19.447914,30.2403629 19.9375,30.2040814 C20.427086,30.1678002 20.86979,29.9682565 21.265624,29.605442 C21.328126,29.5432457 21.408854,29.5095562 21.507812,29.5043735 C21.606772,29.4991908 21.703124,29.5121476 21.796876,29.5432457 C21.901042,29.5743439 21.971354,29.6261728 22.007812,29.6987365 C22.044272,29.7713002 22.0625,29.874958 22.0625,30.009718 C22.0625,30.5694876 22.255206,31.0411383 22.640624,31.4246841 C23.026044,31.80823 23.499998,32 24.0625,32 C24.63542,32 25.111978,31.80823 25.492188,31.4246841 C25.872398,31.0411383 26.0625,30.5694876 26.0625,30.009718 L26.0625,29.8697773 C26.0625,29.7661155 26.091146,29.6831884 26.148438,29.6209921 C26.20573,29.5587938 26.265624,29.5069649 26.328124,29.4654993 C26.401042,29.4344012 26.484374,29.4240358 26.578124,29.4344032 C26.671876,29.4447686 26.765624,29.5017802 26.859376,29.605442 C27.265628,29.9993547 27.742184,30.196307 28.289062,30.196307 C28.83594,30.196307 29.296874,29.9993547 29.671876,29.605442 C30.06771,29.2115294 30.26302,28.737287 30.257812,28.1827009 C30.252604,27.6281148 30.031252,27.1538724 29.59375,26.7599618 C29.5625,26.6563 29.536458,26.5578228 29.515624,26.4645283 C29.494792,26.3712339 29.5,26.2883068 29.53125,26.2157431 Z M28.734376,27.6773564 C28.796876,27.7499201 28.846354,27.8224798 28.882812,27.8950435 C28.919272,27.9676072 28.9375,28.0505343 28.9375,28.1438287 C28.9375,28.2474906 28.919272,28.3356003 28.882812,28.408162 C28.846354,28.4807257 28.796876,28.5481047 28.734376,28.6103011 C28.671874,28.6724974 28.604168,28.7217349 28.53125,28.7580178 C28.458332,28.7942986 28.369792,28.8124401 28.265624,28.8124401 C28.265624,28.8124401 28.265624,28.8124401 28.265624,28.8124401 C28.161458,28.8124401 28.072918,28.7917073 28,28.7502437 C27.927082,28.7087782 27.838542,28.6413992 27.734376,28.5481047 C27.46354,28.2785867 27.156252,28.1127306 26.8125,28.0505343 C26.468748,27.9883379 26.13021,28.0401669 25.796876,28.206025 C25.46354,28.340785 25.203126,28.5584701 25.015624,28.8590863 C24.828124,29.1597025 24.734376,29.4758647 24.734376,29.807581 L24.734376,29.9319737 C24.734376,30.1392948 24.671876,30.3025584 24.546876,30.4217685 C24.421874,30.5409788 24.260418,30.600583 24.0625,30.600583 C23.864582,30.600583 23.70573,30.5409788 23.585938,30.4217685 C23.466146,30.3025584 23.40625,30.1392948 23.40625,29.9319737 L23.40625,29.8697773 C23.40625,29.5069629 23.29948,29.1830266 23.085938,28.8979585 C22.872394,28.6128904 22.59896,28.408164 22.265624,28.2837694 C22.161458,28.2112077 22.046876,28.1697442 21.921876,28.1593768 C21.796874,28.1490114 21.666668,28.1438287 21.53125,28.1438287 C21.302082,28.1438287 21.075522,28.190475 20.851562,28.2837694 C20.627604,28.3770659 20.432292,28.5066392 20.265624,28.6724974 C20.130208,28.8072574 19.984376,28.8772277 19.828124,28.8824104 C19.671874,28.8875931 19.53125,28.8435382 19.40625,28.7502437 L19.265624,28.4703584 L19.203124,28.4703584 C19.171874,28.4392602 19.153646,28.3977967 19.148438,28.3459657 C19.14323,28.2941368 19.140624,28.2474886 19.140624,28.206025 C19.140624,28.1127306 19.158854,28.0272101 19.195312,27.9494657 C19.231772,27.8717194 19.302082,27.7810182 19.40625,27.6773564 C19.666668,27.4182038 19.828124,27.1175916 19.890624,26.7755099 C19.953126,26.4334282 19.901042,26.0965351 19.734376,25.7648208 C19.598958,25.4331045 19.382814,25.1713645 19.085938,24.9795909 C18.789062,24.7878193 18.47396,24.6919335 18.140624,24.6919335 L18,24.6919335 C17.8020824,24.6919335 17.6406256,24.6323285 17.515625,24.5131186 C17.3906244,24.3939086 17.328125,24.2358285 17.328125,24.0388722 C17.328125,23.8315505 17.3906244,23.6682857 17.515625,23.5490758 C17.6406256,23.4298658 17.8020824,23.3702609 18,23.3702609 L18.0625,23.3702609 C18.427086,23.3702609 18.752602,23.2640116 19.039062,23.0515053 C19.325522,22.8390009 19.536458,22.5668935 19.671876,22.2351792 C19.796876,21.9034649 19.828126,21.5639785 19.765624,21.2167141 C19.703124,20.8694497 19.53646,20.5455134 19.265624,20.2448972 C19.130208,20.1205046 19.0625,19.9676072 19.0625,19.7861989 C19.0625,19.6047927 19.130208,19.4518953 19.265624,19.3275006 C19.401042,19.1927426 19.559894,19.127955 19.742188,19.1331377 C19.92448,19.1383204 20.098958,19.2238408 20.265624,19.389697 C20.494792,19.6177514 20.77604,19.7654662 21.109376,19.8328472 C21.44271,19.9002262 21.760416,19.8872694 22.0625,19.793975 L22.265624,19.7162286 C22.59896,19.5814686 22.859374,19.3663748 23.046876,19.0709414 C23.234376,18.7755079 23.328124,18.461937 23.328124,18.1302227 L23.328124,17.990282 C23.328124,17.7933256 23.390624,17.6352435 23.515624,17.5160336 C23.640626,17.3968237 23.802082,17.3372187 24,17.3372187 C24.197918,17.3372187 24.359374,17.399415 24.484376,17.5238076 C24.609376,17.6482022 24.671876,17.8296065 24.671876,18.0680263 C24.671876,18.4308408 24.765624,18.7521838 24.953124,19.0320692 C25.140626,19.3119546 25.40104,19.5192723 25.734376,19.6540323 C26.06771,19.7887923 26.408852,19.8224818 26.757812,19.7551008 C27.106772,19.6877218 27.43229,19.5192743 27.734376,19.2497563 C27.796876,19.1875599 27.864582,19.1409137 27.9375,19.1098155 C28.010418,19.0787154 28.098958,19.0631673 28.203124,19.0631673 C28.296876,19.0631673 28.380208,19.0787154 28.453124,19.1098155 C28.526042,19.1409137 28.598958,19.1875599 28.671876,19.2497563 C28.796876,19.3845163 28.85677,19.5425964 28.851562,19.7240026 C28.846354,19.9054109 28.760418,20.0790391 28.59375,20.2448972 C28.364582,20.4833171 28.216146,20.7683812 28.148438,21.1000975 C28.080728,21.4318118 28.098958,21.7479741 28.203124,22.0485902 L28.265624,22.2351792 C28.401042,22.5668935 28.617186,22.8286355 28.914062,23.0204071 C29.210938,23.2121807 29.52604,23.3080645 29.859376,23.3080645 L30,23.3080645 C30.197918,23.3080645 30.359374,23.3676695 30.484376,23.4868794 C30.609376,23.6060894 30.671876,23.7641715 30.671876,23.9611278 C30.671876,24.1684495 30.606772,24.3317123 30.476562,24.4509223 C30.346354,24.5701322 30.166668,24.6297372 29.9375,24.6297372 C29.572914,24.6297372 29.247398,24.7230316 28.960938,24.9096206 C28.674478,25.0962095 28.463542,25.3553601 28.328124,25.6870744 C28.161458,26.0187888 28.119792,26.3582751 28.203124,26.7055395 C28.286458,27.0528039 28.46354,27.3767402 28.734376,27.6773564 Z" id="Fill-1" fill="#982837"></path>
                    </g>
                </g>
            </g>
        </g>
    </g>
</svg>