<?xml version="1.0" encoding="UTF-8"?>
<svg width="16px" height="16px" viewBox="0 0 16 16" version="1.1" xmlns="http://www.w3.org/2000/svg" xmlns:xlink="http://www.w3.org/1999/xlink">
    <!-- Generator: Sketch 52.4 (67378) - http://www.bohemiancoding.com/sketch -->
    <title>icon-suggest</title>
    <desc>Created with Sketch.</desc>
    <g id="Page-1" stroke="none" stroke-width="1" fill="none" fill-rule="evenodd">
        <g id="我的" transform="translate(-16.000000, -386.000000)">
            <rect fill="#FFFFFF" x="0" y="0" width="360" height="640"></rect>
            <g id="Group-12" transform="translate(0.000000, 370.000000)">
                <g id="Group-4">
                    <g id="Group-8">
                        <g id="Group-13">
                            <rect id="Rectangle-10" stroke="#979797" fill="#E9E9E9" opacity="0" x="0.5" y="0.5" width="359" height="47"></rect>
                            <path d="M29.25,16 L18.75,16 C17.9791628,16 17.3281276,16.2677135 16.796875,16.8031506 C16.2656224,17.3385857 16,17.994746 16,18.7716535 L16,25.3228346 C16,26.0997422 16.2656224,26.7559025 16.796875,27.2913376 C17.3281276,27.8267747 17.9791628,28.0944882 18.75,28.0944882 L24.0625,28.0944882 L28.90625,31.6850394 C29.052084,31.8110243 29.177082,31.8477693 29.28125,31.7952756 C29.385418,31.7427819 29.427084,31.6115496 29.40625,31.4015748 L29,28.0944882 L30,28 C30.583336,27.8320197 31.062498,27.501314 31.4375,27.007875 C31.812502,26.514434 32,25.9527599 32,25.3228346 L32,18.7716535 C32,17.994746 31.734378,17.3385857 31.203124,16.8031506 C30.671872,16.2677135 30.020838,16 29.25,16 Z M31,25.3228346 C31,25.8057776 30.828126,26.2204714 30.484376,26.5669301 C30.140624,26.9133868 29.72917,27.0866142 29.25,27.0866142 L27.875,27.0866142 L28.21875,29.9212598 L24.40625,27.0866142 L18.75,27.0866142 C18.27083,27.0866142 17.8593768,26.9133868 17.515625,26.5669301 C17.1718732,26.2204714 17,25.8057776 17,25.3228346 L17,18.7716535 C17,18.2887106 17.1718732,17.8740168 17.515625,17.527558 C17.8593768,17.1811014 18.27083,17.007874 18.75,17.007874 L29.25,17.007874 C29.72917,17.007874 30.140624,17.1811014 30.484376,17.527558 C30.828126,17.8740168 31,18.2887106 31,18.7716535 L31,25.3228346 Z M21.71875,21.5748031 C21.53125,21.3858268 21.291668,21.2913386 21,21.2913386 C20.708332,21.2913386 20.46875,21.3858268 20.28125,21.5748031 C20.09375,21.7637795 20,22.005248 20,22.2992126 C20,22.5931772 20.09375,22.8346457 20.28125,23.023622 C20.46875,23.2125984 20.708332,23.3070866 21,23.3070866 C21.291668,23.3070866 21.53125,23.2125984 21.71875,23.023622 C21.90625,22.8346457 22,22.5931772 22,22.2992126 C22,22.005248 21.90625,21.7637795 21.71875,21.5748031 Z M24.71875,21.5748031 C24.53125,21.3858268 24.291668,21.2913386 24,21.2913386 C23.708332,21.2913386 23.46875,21.3858268 23.28125,21.5748031 C23.09375,21.7637795 23,22.005248 23,22.2992126 C23,22.5931772 23.09375,22.8346457 23.28125,23.023622 C23.46875,23.2125984 23.708332,23.3070866 24,23.3070866 C24.291668,23.3070866 24.53125,23.2125984 24.71875,23.023622 C24.90625,22.8346457 25,22.5931772 25,22.2992126 C25,22.005248 24.90625,21.7637795 24.71875,21.5748031 Z M27.71875,21.5748031 C27.53125,21.3858268 27.291668,21.2913386 27,21.2913386 C26.708332,21.2913386 26.46875,21.3858268 26.28125,21.5748031 C26.09375,21.7637795 26,22.005248 26,22.2992126 C26,22.5931772 26.09375,22.8346457 26.28125,23.023622 C26.46875,23.2125984 26.708332,23.3070866 27,23.3070866 C27.291668,23.3070866 27.53125,23.2125984 27.71875,23.023622 C27.90625,22.8346457 28,22.5931772 28,22.2992126 C28,22.005248 27.90625,21.7637795 27.71875,21.5748031 Z" id="Fill-1" fill="#982837"></path>
                        </g>
                    </g>
                </g>
            </g>
        </g>
    </g>
</svg>