<?xml version="1.0" encoding="UTF-8"?>
<svg width="16px" height="16px" viewBox="0 0 16 16" version="1.1" xmlns="http://www.w3.org/2000/svg" xmlns:xlink="http://www.w3.org/1999/xlink">
    <!-- Generator: Sketch 52.4 (67378) - http://www.bohemiancoding.com/sketch -->
    <title>icon-checking record</title>
    <desc>Created with Sketch.</desc>
    <g id="Page-1" stroke="none" stroke-width="1" fill="none" fill-rule="evenodd">
        <g id="我的" transform="translate(-16.000000, -225.000000)">
            <rect fill="#FFFFFF" x="0" y="0" width="360" height="640"></rect>
            <g id="Group-11" transform="translate(0.000000, 160.000000)">
                <g id="Group-4" transform="translate(0.000000, 48.000000)" fill="#E9E9E9" opacity="0" stroke="#979797">
                    <g id="Group-7">
                        <rect id="Rectangle-10" x="0.5" y="0.5" width="359" height="47"></rect>
                    </g>
                </g>
                <path d="M30,65 L18,65 C17.447914,65 16.9765644,65.19531 16.5859376,65.585938 C16.1953105,65.976564 16,66.447914 16,67 L16,79 C16,79.552086 16.1953105,80.0234356 16.5859376,80.4140624 C16.9765644,80.8046895 17.447914,81 18,81 L30,81 C30.552086,81 31.023436,80.8046895 31.414062,80.4140624 C31.80469,80.0234356 32,79.552086 32,79 L32,67 C32,66.447914 31.80469,65.976564 31.414062,65.585938 C31.023436,65.19531 30.552086,65 30,65 Z M31,79 C31,79.2708346 30.901042,79.5052074 30.703124,79.703125 C30.505208,79.9010426 30.270834,80 30,80 L18,80 C17.7291654,80 17.4947926,79.9010426 17.296875,79.703125 C17.0989574,79.5052074 17,79.2708346 17,79 L17,67 C17,66.729166 17.0989574,66.494792 17.296875,66.296876 C17.4947926,66.098958 17.7291654,66 18,66 L30,66 C30.270834,66 30.505208,66.098958 30.703124,66.296876 C30.901042,66.494792 31,66.729166 31,67 L31,79 Z M27.015624,69.53125 C26.890624,69.46875 26.763022,69.453124 26.632812,69.484376 C26.502604,69.515626 26.401042,69.59375 26.328124,69.71875 L23.125,75.25 L21.34375,73.609376 C21.25,73.505208 21.132814,73.45052 20.992188,73.445312 C20.851562,73.440104 20.734376,73.484374 20.640624,73.578124 C20.536458,73.671876 20.48177,73.789062 20.476562,73.929688 C20.471354,74.070314 20.515624,74.1875 20.609376,74.28125 L22.90625,76.390624 C23,76.494792 23.114582,76.54948 23.25,76.554688 C23.385418,76.559896 23.505208,76.515626 23.609376,76.421876 C23.619792,76.411458 23.812498,76.080732 24.1875,75.429688 C24.562502,74.778642 24.973956,74.067712 25.421876,73.296876 C25.869794,72.526038 26.278644,71.820316 26.648438,71.179688 C27.018232,70.53906 27.203124,70.21875 27.203124,70.21875 C27.265626,70.09375 27.278646,69.966146 27.242188,69.835938 C27.205728,69.705728 27.130208,69.604168 27.015624,69.53125 Z" id="Fill-1" fill="#982837"></path>
            </g>
        </g>
    </g>
</svg>