<?xml version="1.0" encoding="UTF-8"?>
<svg width="16px" height="16px" viewBox="0 0 16 16" version="1.1" xmlns="http://www.w3.org/2000/svg" xmlns:xlink="http://www.w3.org/1999/xlink">
    <!-- Generator: Sketch 52.4 (67378) - http://www.bohemiancoding.com/sketch -->
    <title>icon-plan</title>
    <desc>Created with Sketch.</desc>
    <g id="Page-1" stroke="none" stroke-width="1" fill="none" fill-rule="evenodd">
        <g id="我的" transform="translate(-16.000000, -176.000000)">
            <rect fill="#FFFFFF" x="0" y="0" width="360" height="640"></rect>
            <g id="Group-11" transform="translate(0.000000, 160.000000)">
                <g id="Group-4" fill="#D8D8D8" opacity="0" stroke="#979797">
                    <rect id="Rectangle-10" x="0.5" y="0.5" width="359" height="47"></rect>
                </g>
                <path d="M31.0604251,16.0817026 L16.5401421,20.9112059 C16.3071386,20.9959347 16.1482749,21.096549 16.0635464,21.2130508 C15.9788179,21.3295507 15.9788179,21.4513477 16.0635464,21.5784399 C16.1482749,21.7055321 16.3071386,21.8114416 16.5401421,21.8961704 L23.2760283,24.7239717 L26.1038296,31.4916309 C26.2097411,31.7246344 26.3209458,31.8782026 26.4374456,31.9523401 C26.5539475,32.0264776 26.6704493,32.0211822 26.7869512,31.9364536 C26.903451,31.8517251 27.0040653,31.6928614 27.0887941,31.4598579 L31.9182974,16.9713479 C32.0453896,16.5900693 32.024209,16.3147063 31.8547514,16.1452486 C31.6852937,15.975791 31.4205211,15.9546104 31.0604251,16.0817026 Z M18.414752,21.4831207 L29.6941841,17.702128 L23.720851,23.7072341 L18.414752,21.4831207 Z M26.5486523,29.6170211 L24.2927659,24.310922 L30.329645,18.2740429 L26.5486523,29.6170211 Z" id="Fill-1" fill="#982837"></path>
            </g>
        </g>
    </g>
</svg>